<mxfile host="app.diagrams.net" agent="Mozilla/5.0 (Windows NT 10.0; Win64; x64) AppleWebKit/537.36 (KHTML, like Gecko) Chrome/128.0.0.0 Safari/537.36" version="24.7.13">
  <diagram name="페이지-1" id="VF_4MV0dQeV1sebaz2XG">
    <mxGraphModel dx="841" dy="1203" grid="0" gridSize="10" guides="1" tooltips="1" connect="1" arrows="1" fold="1" page="0" pageScale="1" pageWidth="827" pageHeight="1169" math="0" shadow="0">
      <root>
        <mxCell id="0" />
        <mxCell id="1" parent="0" />
        <mxCell id="-Soe7MOgycnc826Baa2X-51" value="" style="rounded=1;whiteSpace=wrap;html=1;" vertex="1" parent="1">
          <mxGeometry x="132" y="123" width="557" height="456" as="geometry" />
        </mxCell>
        <mxCell id="-Soe7MOgycnc826Baa2X-1" value="&lt;b style=&quot;font-size: 15px;&quot;&gt;상품 검색&lt;/b&gt;: &lt;b style=&quot;font-size: 15px;&quot;&gt;&lt;font color=&quot;#3c3c82&quot; style=&quot;font-size: 15px;&quot;&gt;고객&lt;/font&gt;&lt;/b&gt;은 상품을 다양한 기준으로 검색할 수 있어야 함.&lt;div style=&quot;font-size: 15px;&quot;&gt;&lt;b style=&quot;font-size: 15px;&quot;&gt;상품 구매&lt;/b&gt;: &lt;b style=&quot;font-size: 15px;&quot;&gt;&lt;font color=&quot;#3c3c82&quot; style=&quot;font-size: 15px;&quot;&gt;고객&lt;/font&gt;&lt;/b&gt;은 검색된 상품 중 원하는 상품을 구매할 수 있어야 함. 단, 상품을 구매하기 위해서는 로그인을 해야 함.&lt;/div&gt;&lt;div style=&quot;font-size: 15px;&quot;&gt;&lt;b style=&quot;font-size: 15px;&quot;&gt;장바구니 관리&lt;/b&gt;: &lt;b style=&quot;font-size: 15px;&quot;&gt;&lt;font color=&quot;#3c3c82&quot; style=&quot;font-size: 15px;&quot;&gt;고객&lt;/font&gt;&lt;/b&gt;은 장바구니에 상품을 추가하거나 제거할 수 있어야 함.&lt;/div&gt;&lt;div style=&quot;font-size: 15px;&quot;&gt;&lt;b style=&quot;font-size: 15px;&quot;&gt;회원 가입&lt;/b&gt;: 새로운 사용자는 회원 가입을 통해 쇼핑몰의 회원이 될 수 있어야 함. -&amp;gt; 고객, 판매&lt;/div&gt;&lt;div style=&quot;font-size: 15px;&quot;&gt;&lt;b style=&quot;font-size: 15px;&quot;&gt;로그인&lt;/b&gt;: 사용자는 자신의 계정으로 로그인 할 수 있어야 함.&amp;nbsp;&amp;nbsp;&lt;/div&gt;&lt;div style=&quot;font-size: 15px;&quot;&gt;&lt;b style=&quot;font-size: 15px;&quot;&gt;상품 등록&lt;/b&gt;: &lt;b style=&quot;font-size: 15px;&quot;&gt;&lt;font color=&quot;#3c3c82&quot; style=&quot;font-size: 15px;&quot;&gt;판매자&lt;/font&gt;&lt;/b&gt;는 상품을 등록할 수 있어야 하며 로그인 후에 가능함.&lt;/div&gt;&lt;div style=&quot;font-size: 15px;&quot;&gt;&lt;b style=&quot;font-size: 15px;&quot;&gt;주문 관리&lt;/b&gt;: &lt;b style=&quot;font-size: 15px;&quot;&gt;&lt;font color=&quot;#3c3c82&quot; style=&quot;font-size: 15px;&quot;&gt;판매자&lt;/font&gt;&lt;/b&gt;는 주문을 확인하고, 처리상태를 업데이트할 수 있어야 함.&lt;/div&gt;&lt;div style=&quot;font-size: 15px;&quot;&gt;&lt;b style=&quot;font-size: 15px;&quot;&gt;시스템 관리:&lt;/b&gt; &lt;b style=&quot;font-size: 15px;&quot;&gt;&lt;font color=&quot;#3c3c82&quot; style=&quot;font-size: 15px;&quot;&gt;관리자&lt;/font&gt;&lt;/b&gt;는 시스템 전반을 관리할 수 있어야 함. 로그인 후에 가능함.&amp;nbsp;&lt;/div&gt;" style="whiteSpace=wrap;html=1;align=left;fontSize=15;spacing=6;spacingBottom=1;" vertex="1" parent="1">
          <mxGeometry x="79.5" y="-136" width="662" height="188" as="geometry" />
        </mxCell>
        <mxCell id="-Soe7MOgycnc826Baa2X-30" style="edgeStyle=none;curved=1;rounded=0;orthogonalLoop=1;jettySize=auto;html=1;fontSize=12;startSize=8;endSize=8;" edge="1" parent="1" source="-Soe7MOgycnc826Baa2X-2" target="-Soe7MOgycnc826Baa2X-15">
          <mxGeometry relative="1" as="geometry">
            <Array as="points">
              <mxPoint x="255" y="196" />
            </Array>
          </mxGeometry>
        </mxCell>
        <mxCell id="-Soe7MOgycnc826Baa2X-33" style="edgeStyle=none;curved=1;rounded=0;orthogonalLoop=1;jettySize=auto;html=1;fontSize=12;startSize=8;endSize=8;" edge="1" parent="1" source="-Soe7MOgycnc826Baa2X-2" target="-Soe7MOgycnc826Baa2X-18">
          <mxGeometry relative="1" as="geometry">
            <Array as="points">
              <mxPoint x="327" y="243" />
            </Array>
          </mxGeometry>
        </mxCell>
        <mxCell id="-Soe7MOgycnc826Baa2X-34" style="edgeStyle=none;curved=1;rounded=0;orthogonalLoop=1;jettySize=auto;html=1;fontSize=12;startSize=8;endSize=8;" edge="1" parent="1" source="-Soe7MOgycnc826Baa2X-2" target="-Soe7MOgycnc826Baa2X-8">
          <mxGeometry relative="1" as="geometry">
            <Array as="points">
              <mxPoint x="353" y="214" />
            </Array>
          </mxGeometry>
        </mxCell>
        <mxCell id="-Soe7MOgycnc826Baa2X-55" style="edgeStyle=none;curved=1;rounded=0;orthogonalLoop=1;jettySize=auto;html=1;fontSize=12;startSize=8;endSize=8;endArrow=block;endFill=0;entryX=0.5;entryY=0;entryDx=0;entryDy=0;entryPerimeter=0;" edge="1" parent="1" source="-Soe7MOgycnc826Baa2X-2" target="-Soe7MOgycnc826Baa2X-54">
          <mxGeometry relative="1" as="geometry">
            <mxPoint x="77" y="333" as="targetPoint" />
            <Array as="points">
              <mxPoint x="93" y="256" />
            </Array>
          </mxGeometry>
        </mxCell>
        <mxCell id="-Soe7MOgycnc826Baa2X-2" value="고객" style="shape=umlActor;verticalLabelPosition=bottom;verticalAlign=top;html=1;" vertex="1" parent="1">
          <mxGeometry x="182" y="207" width="30" height="60" as="geometry" />
        </mxCell>
        <mxCell id="-Soe7MOgycnc826Baa2X-48" style="edgeStyle=none;curved=1;rounded=0;orthogonalLoop=1;jettySize=auto;html=1;entryX=0;entryY=0.5;entryDx=0;entryDy=0;fontSize=12;startSize=8;endSize=8;strokeWidth=1;" edge="1" parent="1" source="-Soe7MOgycnc826Baa2X-4" target="-Soe7MOgycnc826Baa2X-16">
          <mxGeometry relative="1" as="geometry">
            <Array as="points">
              <mxPoint x="341" y="456" />
            </Array>
          </mxGeometry>
        </mxCell>
        <mxCell id="-Soe7MOgycnc826Baa2X-49" style="edgeStyle=none;curved=1;rounded=0;orthogonalLoop=1;jettySize=auto;html=1;entryX=0;entryY=0.5;entryDx=0;entryDy=0;fontSize=12;startSize=8;endSize=8;strokeWidth=1;" edge="1" parent="1" source="-Soe7MOgycnc826Baa2X-4" target="-Soe7MOgycnc826Baa2X-21">
          <mxGeometry relative="1" as="geometry">
            <Array as="points">
              <mxPoint x="315" y="498" />
            </Array>
          </mxGeometry>
        </mxCell>
        <mxCell id="-Soe7MOgycnc826Baa2X-56" style="edgeStyle=none;curved=1;rounded=0;orthogonalLoop=1;jettySize=auto;html=1;fontSize=12;startSize=8;endSize=8;endArrow=block;endFill=0;entryX=0.95;entryY=0.51;entryDx=0;entryDy=0;entryPerimeter=0;" edge="1" parent="1" source="-Soe7MOgycnc826Baa2X-4" target="-Soe7MOgycnc826Baa2X-54">
          <mxGeometry relative="1" as="geometry" />
        </mxCell>
        <mxCell id="-Soe7MOgycnc826Baa2X-4" value="판매자" style="shape=umlActor;verticalLabelPosition=bottom;verticalAlign=top;html=1;" vertex="1" parent="1">
          <mxGeometry x="182" y="327" width="30" height="60" as="geometry" />
        </mxCell>
        <mxCell id="-Soe7MOgycnc826Baa2X-5" value="관리자" style="shape=umlActor;verticalLabelPosition=bottom;verticalAlign=top;html=1;" vertex="1" parent="1">
          <mxGeometry x="182" y="447" width="30" height="60" as="geometry" />
        </mxCell>
        <mxCell id="-Soe7MOgycnc826Baa2X-8" value="장바구니&amp;nbsp;&lt;div&gt;관리&lt;/div&gt;" style="ellipse;whiteSpace=wrap;html=1;" vertex="1" parent="1">
          <mxGeometry x="471" y="211" width="92" height="52" as="geometry" />
        </mxCell>
        <mxCell id="-Soe7MOgycnc826Baa2X-15" value="상품 검색" style="ellipse;whiteSpace=wrap;html=1;" vertex="1" parent="1">
          <mxGeometry x="298" y="141" width="92" height="52" as="geometry" />
        </mxCell>
        <mxCell id="-Soe7MOgycnc826Baa2X-16" value="주문 관리" style="ellipse;whiteSpace=wrap;html=1;" vertex="1" parent="1">
          <mxGeometry x="471" y="365" width="92" height="52" as="geometry" />
        </mxCell>
        <mxCell id="-Soe7MOgycnc826Baa2X-35" style="edgeStyle=none;curved=1;rounded=0;orthogonalLoop=1;jettySize=auto;html=1;fontSize=12;startSize=8;endSize=8;dashed=1;" edge="1" parent="1" source="-Soe7MOgycnc826Baa2X-17" target="-Soe7MOgycnc826Baa2X-15">
          <mxGeometry relative="1" as="geometry" />
        </mxCell>
        <mxCell id="-Soe7MOgycnc826Baa2X-36" value="&amp;lt;&amp;lt;Extends&amp;gt;&amp;gt;" style="edgeLabel;html=1;align=center;verticalAlign=middle;resizable=0;points=[];fontSize=12;" vertex="1" connectable="0" parent="-Soe7MOgycnc826Baa2X-35">
          <mxGeometry x="0.1239" y="2" relative="1" as="geometry">
            <mxPoint x="19" y="-2" as="offset" />
          </mxGeometry>
        </mxCell>
        <mxCell id="-Soe7MOgycnc826Baa2X-17" value="상품 구매" style="ellipse;whiteSpace=wrap;html=1;" vertex="1" parent="1">
          <mxGeometry x="544" y="141" width="92" height="52" as="geometry" />
        </mxCell>
        <mxCell id="-Soe7MOgycnc826Baa2X-18" value="회원 가입" style="ellipse;whiteSpace=wrap;html=1;" vertex="1" parent="1">
          <mxGeometry x="406" y="267" width="92" height="52" as="geometry" />
        </mxCell>
        <mxCell id="-Soe7MOgycnc826Baa2X-19" value="시스템 관리" style="ellipse;whiteSpace=wrap;html=1;" vertex="1" parent="1">
          <mxGeometry x="334" y="507" width="92" height="52" as="geometry" />
        </mxCell>
        <mxCell id="-Soe7MOgycnc826Baa2X-20" value="로그인" style="ellipse;whiteSpace=wrap;html=1;" vertex="1" parent="1">
          <mxGeometry x="308" y="313" width="92" height="52" as="geometry" />
        </mxCell>
        <mxCell id="-Soe7MOgycnc826Baa2X-21" value="상품 등록" style="ellipse;whiteSpace=wrap;html=1;" vertex="1" parent="1">
          <mxGeometry x="433" y="441" width="92" height="52" as="geometry" />
        </mxCell>
        <mxCell id="-Soe7MOgycnc826Baa2X-50" style="edgeStyle=none;curved=1;rounded=0;orthogonalLoop=1;jettySize=auto;html=1;entryX=0;entryY=0.49;entryDx=0;entryDy=0;entryPerimeter=0;fontSize=12;startSize=8;endSize=8;" edge="1" parent="1">
          <mxGeometry relative="1" as="geometry">
            <mxPoint x="212" y="481.3846153846155" as="sourcePoint" />
            <mxPoint x="333" y="531.48" as="targetPoint" />
            <Array as="points">
              <mxPoint x="262" y="526" />
            </Array>
          </mxGeometry>
        </mxCell>
        <mxCell id="-Soe7MOgycnc826Baa2X-53" value="System" style="text;html=1;align=center;verticalAlign=middle;resizable=0;points=[];autosize=1;strokeColor=none;fillColor=none;fontSize=16;" vertex="1" parent="1">
          <mxGeometry x="375" y="86" width="71" height="31" as="geometry" />
        </mxCell>
        <mxCell id="-Soe7MOgycnc826Baa2X-58" style="edgeStyle=none;curved=1;rounded=0;orthogonalLoop=1;jettySize=auto;html=1;entryX=0;entryY=0.5;entryDx=0;entryDy=0;fontSize=12;startSize=8;endSize=8;" edge="1" parent="1" source="-Soe7MOgycnc826Baa2X-54" target="-Soe7MOgycnc826Baa2X-20">
          <mxGeometry relative="1" as="geometry">
            <Array as="points">
              <mxPoint x="154" y="273" />
            </Array>
          </mxGeometry>
        </mxCell>
        <mxCell id="-Soe7MOgycnc826Baa2X-54" value="사용자" style="shape=umlActor;verticalLabelPosition=bottom;verticalAlign=top;html=1;" vertex="1" parent="1">
          <mxGeometry x="8" y="317" width="30" height="60" as="geometry" />
        </mxCell>
        <mxCell id="-Soe7MOgycnc826Baa2X-57" style="edgeStyle=none;curved=1;rounded=0;orthogonalLoop=1;jettySize=auto;html=1;fontSize=12;startSize=8;endSize=8;entryX=1;entryY=1;entryDx=0;entryDy=0;entryPerimeter=0;endArrow=block;endFill=0;" edge="1" parent="1" source="-Soe7MOgycnc826Baa2X-5" target="-Soe7MOgycnc826Baa2X-54">
          <mxGeometry relative="1" as="geometry">
            <mxPoint x="76" y="355" as="targetPoint" />
            <Array as="points">
              <mxPoint x="94" y="443" />
            </Array>
          </mxGeometry>
        </mxCell>
      </root>
    </mxGraphModel>
  </diagram>
</mxfile>
